<?xml version="1.0" encoding="utf-8"?>
<!-- Generator: Adobe Illustrator 28.4.1, SVG Export Plug-In . SVG Version: 6.00 Build 0)  -->
<svg version="1.1" id="Layer_1" xmlns="http://www.w3.org/2000/svg" xmlns:xlink="http://www.w3.org/1999/xlink" x="0px" y="0px"
	 viewBox="0 0 179 51" style="enable-background:new 0 0 179 51;" xml:space="preserve">
<style type="text/css">
	.st0{fill:none;stroke:#000000;stroke-miterlimit:10;}
</style>
<rect class="st0" width="179" height="51"/>
<g>
	<path d="M56.5,39.9H35.7V14.6h-2V8.7h10v24.9h6.9c0.4-0.1,0.6-0.3,0.7-0.5c0.1-0.2,0.2-0.7,0.2-1.4h5.1V39.9z"/>
	<path d="M72.4,8.3c0.9,0,1.9,0,2.9,0.1c1,0.1,2,0.2,3,0.5c1,0.3,1.9,0.7,2.8,1.2c0.9,0.5,1.7,1.2,2.4,2.1c0.7,0.9,1.2,2,1.6,3.3
		c0.4,1.3,0.6,2.9,0.6,4.7v7.1c0,2.8-0.4,5.1-1.1,6.8c-0.7,1.7-1.7,3-3,3.9c-1.2,0.9-2.6,1.5-4.3,1.8c-1.6,0.3-3.3,0.4-5,0.4
		c-1.7,0-3.4-0.2-5-0.5c-1.6-0.3-3-0.9-4.3-1.8c-1.2-0.9-2.2-2.2-3-3.9c-0.7-1.7-1.1-3.9-1.1-6.7v-7.1c0-1.8,0.2-3.4,0.6-4.7
		s1-2.4,1.6-3.3c0.7-0.9,1.5-1.6,2.4-2.1c0.9-0.5,1.9-0.9,2.8-1.2c1-0.3,2-0.5,3-0.5C70.5,8.3,71.5,8.3,72.4,8.3z M72.4,14.2
		c-0.9,0-1.7,0.2-2.3,0.5c-0.6,0.4-1.1,0.9-1.4,1.6S68.1,18,68,19.1c-0.1,1.1-0.2,2.3-0.2,3.7v3.3c0,1.5,0.1,2.8,0.2,3.8
		c0.1,1.1,0.4,1.9,0.7,2.6s0.8,1.1,1.4,1.4c0.6,0.3,1.4,0.4,2.3,0.4c0.9,0,1.7-0.1,2.3-0.4c0.6-0.3,1.1-0.8,1.4-1.4s0.6-1.5,0.7-2.6
		c0.1-1.1,0.2-2.3,0.2-3.8v-3.3c0-1.4-0.1-2.6-0.2-3.7c-0.1-1.1-0.4-2-0.7-2.7c-0.3-0.7-0.8-1.2-1.4-1.6
		C74.1,14.4,73.3,14.2,72.4,14.2z"/>
	<path d="M106.4,17.7l-0.2-1.7c-0.3-0.4-0.8-0.8-1.4-1.2c-0.6-0.4-1.6-0.5-2.8-0.5c-0.9,0-1.7,0.2-2.3,0.5s-1.1,0.9-1.4,1.6
		c-0.3,0.7-0.6,1.6-0.7,2.7c-0.1,1.1-0.2,2.3-0.2,3.8v3.3c0,1.6,0.1,2.9,0.2,3.9c0.1,1.1,0.4,1.9,0.8,2.5s0.9,1.1,1.5,1.4
		s1.5,0.4,2.5,0.4c1.1,0,2,0,2.9-0.1c0-0.2,0-0.5,0-0.7c0-0.2,0-0.4,0-0.7v-2.7h-1.9v-5.8h9.9v9.4c0,1.6,0.1,2.7,0.2,3.5
		c0.2,0.7,0.4,1.3,0.6,1.5l-5,1.6c-0.5-0.2-1-0.5-1.4-0.8c-0.8,0.2-1.7,0.4-2.6,0.6c-0.9,0.1-1.8,0.2-2.7,0.2
		c-1.8,0-3.6-0.1-5.2-0.4s-3.1-0.8-4.4-1.8c-1.3-0.9-2.3-2.2-3.1-3.9c-0.8-1.7-1.2-4-1.2-6.9v-7.1c0-1.8,0.2-3.4,0.6-4.7
		c0.4-1.3,0.9-2.4,1.6-3.3c0.7-0.9,1.4-1.6,2.3-2.2c0.9-0.5,1.8-1,2.8-1.2c1-0.3,2-0.5,2.9-0.5c1-0.1,1.9-0.1,2.8-0.1
		c1.9,0,3.8,0.1,5.6,0.4c1.8,0.2,3.4,0.6,4.7,1l-0.6,8H106.4z"/>
	<path d="M130.1,8.3c0.9,0,1.9,0,2.9,0.1c1,0.1,2,0.2,3,0.5c1,0.3,1.9,0.7,2.8,1.2c0.9,0.5,1.7,1.2,2.4,2.1c0.7,0.9,1.2,2,1.6,3.3
		c0.4,1.3,0.6,2.9,0.6,4.7v7.1c0,2.8-0.4,5.1-1.1,6.8c-0.7,1.7-1.7,3-3,3.9s-2.6,1.5-4.3,1.8c-1.6,0.3-3.3,0.4-5,0.4
		c-1.7,0-3.4-0.2-5-0.5c-1.6-0.3-3-0.9-4.3-1.8c-1.2-0.9-2.2-2.2-3-3.9c-0.7-1.7-1.1-3.9-1.1-6.7v-7.1c0-1.8,0.2-3.4,0.6-4.7
		c0.4-1.3,1-2.4,1.6-3.3c0.7-0.9,1.5-1.6,2.4-2.1c0.9-0.5,1.8-0.9,2.8-1.2c1-0.3,2-0.5,3-0.5C128.3,8.3,129.2,8.3,130.1,8.3z
		 M130.1,14.2c-0.9,0-1.7,0.2-2.3,0.5c-0.6,0.4-1.1,0.9-1.4,1.6c-0.3,0.7-0.6,1.6-0.7,2.7c-0.1,1.1-0.2,2.3-0.2,3.7v3.3
		c0,1.5,0.1,2.8,0.2,3.8c0.1,1.1,0.4,1.9,0.7,2.6c0.3,0.7,0.8,1.1,1.4,1.4c0.6,0.3,1.4,0.4,2.3,0.4c0.9,0,1.7-0.1,2.3-0.4
		c0.6-0.3,1.1-0.8,1.4-1.4c0.4-0.7,0.6-1.5,0.7-2.6c0.1-1.1,0.2-2.3,0.2-3.8v-3.3c0-1.4-0.1-2.6-0.2-3.7c-0.1-1.1-0.4-2-0.7-2.7
		c-0.3-0.7-0.8-1.2-1.4-1.6C131.8,14.4,131.1,14.2,130.1,14.2z"/>
</g>
</svg>
